<?xml version="1.0" encoding="utf-8"?>
<!-- Generator: Adobe Illustrator 23.0.1, SVG Export Plug-In . SVG Version: 6.00 Build 0)  -->
<svg version="1.1" id="Capa_1" xmlns="http://www.w3.org/2000/svg" xmlns:xlink="http://www.w3.org/1999/xlink" x="0px" y="0px"
	 viewBox="0 0 112 112" style="enable-background:new 0 0 112 112;" xml:space="preserve">
<style type="text/css">
	.st0{fill:#FFFFFF;}
</style>
<g>
	<path class="st0" d="M15.2,98.3c0,0-0.1,2.5,2.3,2.5c3,0,28.2,0,28.2,0l0-23.1c0,0-0.4-3.8,3.3-3.8h11.7c4.4,0,4.1,3.8,4.1,3.8
		l0,23.1c0,0,23.9,0,27.6,0c3.1,0,3-3.1,3-3.1V54.9L56.6,20.3L15.2,54.9C15.2,54.9,15.2,98.3,15.2,98.3z"/>
	<path class="st0" d="M0,51.7c0,0,3.5,6.5,11.2,0L56.9,13l42.9,38.5c8.9,6.4,12.2,0,12.2,0L56.9,1.5L0,51.7z"/>
	<polygon class="st0" points="98.8,12.9 87.7,12.9 87.8,26.3 98.8,35.6 	"/>
</g>
</svg>
