<?xml version="1.0" encoding="utf-8"?>
<!-- Generator: Adobe Illustrator 23.0.1, SVG Export Plug-In . SVG Version: 6.00 Build 0)  -->
<svg version="1.1" id="Capa_1" xmlns="http://www.w3.org/2000/svg" xmlns:xlink="http://www.w3.org/1999/xlink" x="0px" y="0px"
	 viewBox="0 0 453.6 453.6" style="enable-background:new 0 0 453.6 453.6;" xml:space="preserve">
<style type="text/css">
	.st0{fill:#1D3F5B;}
</style>
<g>
	<g>
		<path class="st0" d="M226.7,0h-171c-4.4,0-8,3.6-8,8v370.4c2.7-0.3,5.3-0.5,8-0.4h179V8C234.7,3.6,231.1,0,226.7,0z M126.4,299.2
			H87.6v-38.8h38.8V299.2z M126.4,229.4H87.6v-38.8h38.8V229.4z M126.4,159.7H87.6v-38.8h38.8V159.7z M126.4,89.9H87.6V51.1h38.8
			V89.9z M194.7,299.2H156v-38.8h38.7V299.2z M194.7,229.4H156v-38.8h38.7V229.4z M194.7,159.7H156v-38.8h38.7V159.7z M194.7,89.9
			H156V51.1h38.7V89.9z"/>
	</g>
</g>
<g>
	<g>
		<path class="st0" d="M397.7,110.4h-151v267.2H274V255.5h102.7V378h20.9c2.7,0,5.3,0.1,8,0.4v-260
			C405.7,114,402.1,110.4,397.7,110.4z M310.4,202.3h-38.8v-38.8h38.8L310.4,202.3z M378.7,202.3H340v-38.8h38.7V202.3z"/>
	</g>
</g>
<g>
	<g>
		<path class="st0" d="M397.8,389.9h-0.2H55.8c-30.7,0.2-55.5,25-55.7,55.7c0,4.4,3.6,8,8,8h437.4c4.4,0,8-3.6,8-8
			C453.3,414.9,428.5,390.1,397.8,389.9z"/>
	</g>
</g>
</svg>
