<?xml version="1.0" encoding="utf-8"?>
<!-- Generator: Adobe Illustrator 23.0.1, SVG Export Plug-In . SVG Version: 6.00 Build 0)  -->
<svg version="1.1" id="Layer_1" xmlns="http://www.w3.org/2000/svg" xmlns:xlink="http://www.w3.org/1999/xlink" x="0px" y="0px"
	 viewBox="0 0 512 512" style="enable-background:new 0 0 512 512;" xml:space="preserve">
<style type="text/css">
	.st0{fill:#1D3F5B;}
</style>
<path class="st0" d="M209.6,305.6c3.2,2.4,8,2.4,10.4-0.8l22.4-22.4l-12.8-6.4c-12-6.4-23.2-14.4-32.8-24.8l-32.8,20L209.6,305.6z"
	/>
<path class="st0" d="M302.4,305.6l44.8-33.6l-32.8-20c-9.6,10.4-20,18.4-32.8,24.8l-12.8,6.4l22.4,22.4
	C294.4,307.2,299.2,308,302.4,305.6L302.4,305.6z"/>
<path class="st0" d="M284,318.4c-0.8-0.8-2.4-1.6-3.2-2.4L256,291.2L231.2,316c-0.8,0.8-2.4,1.6-3.2,2.4l28,56L284,318.4z"/>
<path class="st0" d="M188.8,131.2c-3.2,1.6-4.8,4-4.8,7.2V176c0,36,20.8,69.6,52.8,85.6l15.2,8c2.4,0.8,4.8,0.8,7.2,0l15.2-8
	c32.8-16,52.8-49.6,52.8-85.6v-32c0-4.8-3.2-8-8-8h-24c-17.6,0-32-14.4-32-32v-4L188.8,131.2z"/>
<path class="st0" d="M172.8,207.2c-3.2-10.4-4.8-20.8-4.8-32v-36.8c0-9.6,5.6-18.4,14.4-22.4L280,76v28c0,8.8,7.2,16,16,16h24
	c13.6,0,24,10.4,24,24v32c0,10.4-1.6,21.6-4.8,32c18.4-16.8,30.4-40,32-65.6l1.6-20c1.6-27.2-13.6-52-38.4-63.2l-46.4-20
	c-20.8-8.8-44-8.8-64,0l-46.4,20c-24.8,11.2-40,36-38.4,63.2l1.6,20C142.4,167.2,153.6,191.2,172.8,207.2L172.8,207.2z"/>
<path class="st0" d="M224,480h64v-80h-64V480z M240,416h32v16h-32V416z M240,448h32v16h-32V448z"/>
<path class="st0" d="M376,440v-16h7.2c9.6,0,16.8-7.2,16.8-16.8c0-7.2-4.8-13.6-11.2-16l-17.6-5.6L336,467.2l-14.4-6.4L392,299.2
	l-29.6-18.4L312,318.4c-3.2,2.4-8,4-12,4.8L268.8,384H304v96h128v-44.8c-7.2,3.2-15.2,4.8-22.4,4.8H376z"/>
<path class="st0" d="M444.8,370.4L412,291.2l-34.4,80l16,5.6c16.8,5.6,26.4,24,20.8,41.6c0,0.8-0.8,1.6-0.8,1.6
	c-0.8,1.6-1.6,3.2-2.4,4.8c21.6-0.8,37.6-19.2,36.8-40.8C448,379.2,446.4,374.4,444.8,370.4L444.8,370.4z"/>
<path class="st0" d="M212,322.4c-4.8,0-8.8-1.6-12-4.8L150.4,280l-36,22.4c-20.8,12.8-33.6,36-33.6,60.8V480h64v-96h16v96h48v-96
	H244L212,322.4z"/>
</svg>
