<?xml version="1.0" encoding="utf-8"?>
<!-- Generator: Adobe Illustrator 23.0.1, SVG Export Plug-In . SVG Version: 6.00 Build 0)  -->
<svg version="1.1" id="Layer_1" xmlns="http://www.w3.org/2000/svg" xmlns:xlink="http://www.w3.org/1999/xlink" x="0px" y="0px"
	 viewBox="0 0 1556.3 363.9" style="enable-background:new 0 0 1556.3 363.9;" xml:space="preserve">
<style type="text/css">
	.st0{fill:#182749;}
	.st1{fill:#303030;}
	.st2{fill:#FFFFFF;}
	.st3{fill:#F2A325;}
	.st4{fill:url(#SVGID_1_);}
	.st5{fill:#99C83F;}
	.st6{fill:url(#SVGID_2_);}
	.st7{fill:#18BADD;}
	.st8{fill:none;stroke:#FFFFFF;stroke-width:4.265;stroke-linecap:round;stroke-linejoin:round;}
	.st9{fill:none;stroke:#FFFFFF;stroke-width:4.265;stroke-linecap:round;stroke-linejoin:round;stroke-dasharray:20.4171,29.4913;}
	
		.st10{fill:none;stroke:#FFFFFF;stroke-width:4.265;stroke-linecap:round;stroke-linejoin:round;stroke-miterlimit:10;stroke-dasharray:19.1923,27.7222;}
	
		.st11{fill:none;stroke:#FFFFFF;stroke-width:4.265;stroke-linecap:round;stroke-linejoin:round;stroke-miterlimit:10;stroke-dasharray:17.0598,23.4573;}
	
		.st12{fill:none;stroke:#FFFFFF;stroke-width:4.265;stroke-linecap:round;stroke-linejoin:round;stroke-miterlimit:10;stroke-dasharray:19.1923,17.0598;}
	.st13{fill:#FEFEFE;}
	
		.st14{fill:none;stroke:#FFFFFF;stroke-width:4.265;stroke-linecap:round;stroke-linejoin:round;stroke-miterlimit:10;stroke-dasharray:19.1923,23.4573;}
	.st15{display:none;fill:#F2F7FF;}
	.st16{display:none;}
	.st17{display:inline;fill:#0C3049;}
	.st18{display:inline;fill:#F2A325;}
	.st19{display:inline;fill:url(#SVGID_3_);}
	.st20{display:inline;fill:#99C83F;}
	.st21{display:inline;fill:url(#SVGID_4_);}
	.st22{display:inline;fill:#18BADD;}
	.st23{display:inline;}
	.st24{fill:none;stroke:#0C3049;stroke-width:4.2591;stroke-linecap:round;stroke-linejoin:round;}
	
		.st25{fill:none;stroke:#0C3049;stroke-width:4.2591;stroke-linecap:round;stroke-linejoin:round;stroke-dasharray:20.3891,29.4509;}
	
		.st26{display:inline;fill:none;stroke:#0C3049;stroke-width:4.2591;stroke-linecap:round;stroke-linejoin:round;stroke-miterlimit:10;stroke-dasharray:19.166,27.6842;}
	
		.st27{display:inline;fill:none;stroke:#0C3049;stroke-width:4.2591;stroke-linecap:round;stroke-linejoin:round;stroke-miterlimit:10;stroke-dasharray:17.0364,23.4251;}
	
		.st28{display:inline;fill:none;stroke:#FFFFFF;stroke-width:4.2591;stroke-linecap:round;stroke-linejoin:round;stroke-miterlimit:10;stroke-dasharray:19.166,27.6842;}
	
		.st29{display:inline;fill:none;stroke:#0C3049;stroke-width:4.2591;stroke-linecap:round;stroke-linejoin:round;stroke-miterlimit:10;stroke-dasharray:19.166,17.0364;}
	.st30{fill:#0C3049;}
	
		.st31{display:inline;fill:none;stroke:#0C3049;stroke-width:4.2591;stroke-linecap:round;stroke-linejoin:round;stroke-miterlimit:10;stroke-dasharray:19.166,23.4251;}
</style>
<path class="st0" d="M-2566.6,897.9L-2566.6,897.9C-2566.6,897.8-2566.6,897.8-2566.6,897.9
	C-2566.6,897.8-2566.6,897.8-2566.6,897.9C-2566.6,897.8-2566.6,897.8-2566.6,897.9z"/>
<g>
	<path class="st1" d="M43.9,251.7"/>
	<path class="st2" d="M1384.9,297c1.2,3.1-0.4,6.7-3.6,7.7c-2.7,0.9-5.7,1.4-8.7,1.4c-13.8,0-21.8-7.3-21.8-21.3v-30.4h-4.6
		c-3.2,0-5.9-2.6-5.9-5.9v-0.1c0-3.2,2.6-5.9,5.9-5.9h4.6V234c0-3.2,2.6-5.9,5.9-5.9h3.1c3.2,0,5.9,2.6,5.9,5.9v8.6h11.1
		c3.2,0,5.9,2.6,5.9,5.9v0.1c0,3.2-2.6,5.9-5.9,5.9h-11.1v30.1c0,6.2,3.1,9.5,8.8,9.5c1.2,0,2.4-0.1,3.6-0.4
		C1380.8,292.8,1383.8,294.3,1384.9,297L1384.9,297z"/>
	<path class="st2" d="M1445.2,278.4H1403c-1.7,0-2.9,1.8-2.3,3.4c2.8,7.3,9.9,11.8,19.5,11.8c5.1,0,9.4-1.2,13.1-3.5
		c2.6-1.7,6-1.1,8,1.2l0,0c2.4,2.8,1.9,7.1-1.1,9.2c-5.4,3.7-12.3,5.7-20.4,5.7c-20.9,0-34.6-13.3-34.9-31.8
		c-0.3-18.1,14.6-33,32.7-33c18.5,0,31.9,12.9,31.9,32.7l0,0C1449.6,276.4,1447.6,278.4,1445.2,278.4z M1402.7,268.6h29.7
		c1.7,0,2.8-1.6,2.3-3.2c-2.2-7.3-8.7-12.2-17.2-12.2c-8.4,0-14.8,4.7-17.2,12.1C1399.9,266.9,1401.1,268.6,1402.7,268.6z"/>
	<path class="st2" d="M1452.8,273.7c0-18.9,14.2-32.3,34.2-32.3c9,0,16.6,2.7,22,7.9c3.2,3,2.4,8.3-1.4,10.5l0,0
		c-2.6,1.5-5.9,1.1-8-0.9c-3.5-3.4-7.9-4.9-12.7-4.9c-10.9,0-19.2,7.6-19.2,19.8c0,12.3,8.3,19.8,19.2,19.8c4.7,0,9.2-1.6,12.7-4.9
		c2.2-2.1,5.4-2.5,8-0.9l0,0c3.8,2.2,4.6,7.5,1.4,10.5c-5.4,5.2-13,8-22,8C1467,306.1,1452.8,292.6,1452.8,273.7z"/>
	<path class="st3" d="M267.8,61.9c-5.3-5.3-12.6-8.5-20.6-8.5c-16.1,0-29.1,13-29.1,29.1v125.6L100.1,64
		c-5.5-6.7-13.8-10.7-22.5-10.7h-5.9c-16.1,0-29.1,13-29.1,29.1V279c0,8,3.3,15.3,8.5,20.6c1,1,2.1,1.9,3.2,2.7
		c0.4,0.3,0.9,0.6,1.3,0.9c0.3,0.2,0.7,0.4,1.1,0.7c4,2.4,8.6,3.9,13.5,4.2h0.1c0.5,0,0.9,0,1.4,0c8.6,0,16.2-3.7,21.6-9.5l0,0
		c4.7-5.2,7.6-12,7.6-19.6V153.5l118.3,144.1c5.5,6.7,13.8,10.7,22.5,10.7h5.5c16.1,0,29.1-13,29.1-29.1V82.5
		C276.3,74.5,273,67.2,267.8,61.9z"/>
	
		<linearGradient id="SVGID_1_" gradientUnits="userSpaceOnUse" x1="305.6" y1="181" x2="536.3" y2="181" gradientTransform="matrix(1 0 0 -1 0 364)">
		<stop  offset="0" style="stop-color:#C3AF39"/>
		<stop  offset="1" style="stop-color:#C9AC36"/>
	</linearGradient>
	<path class="st4" d="M305.6,196.1V82.5c0-16.1,13-29.1,29.1-29.1h0.7c16.1,0,29.1,13,29.1,29.1v111.4c0,48.4,21.1,68.4,56.8,68.4
		c36,0,56.8-20,56.8-68.4V82.5c0-16.1,13-29.1,29.1-29.1l0,0c16.1,0,29.1,13,29.1,29.1v113.6c0,75-43,116.5-115.4,116.5
		C348.6,312.6,305.6,271.1,305.6,196.1z"/>
	<path class="st5" d="M781.3,284.7L781.3,284.7c0,13.3-10.8,24.1-24.1,24.1H581.6c-13.3,0-24.1-10.8-24.1-24.1v-5.6
		c0-5.6,2-11.1,5.6-15.4L698,101H584.5c-13.3,0-24.1-10.8-24.1-24.1l0,0c0-13.3,10.8-24.1,24.1-24.1h167.2
		c13.3,0,24.1,10.8,24.1,24.1v5.6c0,5.6-2,11.1-5.5,15.4L635.8,260.6h121.4C770.5,260.6,781.3,271.4,781.3,284.7z"/>
	
		<linearGradient id="SVGID_2_" gradientUnits="userSpaceOnUse" x1="804.7" y1="185.25" x2="1038.4" y2="185.25" gradientTransform="matrix(1 0 0 -1 0 364)">
		<stop  offset="0.2107" style="stop-color:#48BEA9"/>
		<stop  offset="0.3217" style="stop-color:#58BF97"/>
	</linearGradient>
	<path class="st6" d="M1038.4,80.8v195.9c0,16.3-13.2,29.5-29.5,29.5l0,0c-16.3,0-29.5-13.2-29.5-29.5v-75H863.7v75
		c0,16.3-13.2,29.5-29.5,29.5l0,0c-16.3,0-29.5-13.2-29.5-29.5V80.8c0-16.3,13.2-29.5,29.5-29.5l0,0c16.3,0,29.5,13.2,29.5,29.5v71
		h115.8v-71c0-16.3,13.2-29.5,29.5-29.5l0,0C1025.2,51.3,1038.4,64.5,1038.4,80.8z"/>
	<path class="st7" d="M1319.4,267.6l-84.9-189.8c-3.6-8.1-9.4-14.7-16.5-19.4c-7.1-4.6-15.6-7.2-24.4-7.2c-17.8,0-33.8,10.4-41,26.6
		L1068,267.6c-1.7,3.7-2.4,7.4-2.4,11.1c0,14.4,11.6,27.4,27.4,27.4c11.1,0,21.1-6.7,25.3-16.9l7.4-17.8l8.2-19.9h0.1l36.3-86.9h0.1
		l22.9-55.4l28.8,69.5l11.6,28l18.5,44.8l15.6,37.7c4.2,10.3,14.2,16.9,25.3,16.9h1.4C1314.2,306.1,1327.5,285.7,1319.4,267.6z"/>
	<g>
		<g>
			<path class="st8" d="M211.7,119.8c-3.1-0.6-6.3-1.2-9.4-1.7"/>
			<path class="st9" d="M172.9,115.9c-7.3,0.1-14.6,0.7-21.8,1.9c-29.8,4.9-57.4,20.6-75.2,45.2c-14.3,19.8-22.4,43.2-26.8,67.2"/>
			<path class="st8" d="M46.8,244.8c-0.4,3.2-0.7,6.4-1,9.5"/>
		</g>
	</g>
	<path class="st10" d="M281.1,142.8c8.2,6.9,16.3,13.8,24.5,20.7"/>
	<path class="st11" d="M370.4,206.8c10.9,23.4,23.7,44.7,45.1,59.6c25.6,14.9,51.2,21.3,78.9,14.9c36.3-8.5,51.2-40.5,72.5-68.2
		c32-51.2,51.2-102.4,64.3-160.3"/>
	<path class="st10" d="M804.7,218.1"/>
	<path class="st12" d="M583.2,108.4c1.6,20.6,2.3,41.8,9.6,61.5c7.1,19.2,21.9,37.1,37.4,50.3c8.7,7.4,18.3,13.7,28.6,18.5
		c42.6,19.2,89.6,23.5,135.3,11"/>
	<g>
		<path class="st13" d="M1453.9,100.3c0.7-4.3-1-6.3-5.4-6.2c-7.7,0.1-14.4,2.5-20.3,7.5c-10.5,8.9-21.1,17.6-31.4,26.8
			c-2.9,2.6-5.6,3-8.9,1.7c-0.5,0.2-1,0.1-1.5-0.2c-1.8-0.1-3.5-0.3-5.1-0.8h-0.2l-39.6-6.1l-0.5-0.1l0,0l-4.5-0.7
			c-0.2-0.1-0.4-0.1-0.6-0.1l0,0c-0.8,0-1.4,0.5-2,1.2c-2.1,2.6-4.2,5.1-6.5,7.5c-1.4,1.4-1.4,2.1,0.3,3.2
			c9.4,6.5,18.8,12.9,28.4,19.1c1.4,0.9,3.8,1.8,3.9,2.9c0.1,1-0.9,1.8-1.9,2.5c-8.7,11.4-46.5,58.5-93.3,87.9
			c10.1-5.3,20.1-10.8,30-16.4c28.2-16.1,55.7-33.3,80.7-54.2c23-19.2,45-39.5,68.6-57.9C1449.7,113.5,1452.7,107.3,1453.9,100.3z
			 M1362.3,137.9L1362.3,137.9L1362.3,137.9C1362.3,137.8,1362.3,137.8,1362.3,137.9L1362.3,137.9z M1152.5,296.1
			c0.1,0,0.2,0,0.2-0.1v-0.1C1152.7,296,1152.6,296.1,1152.5,296.1z"/>
		<path class="st13" d="M1409.5,153.7c-4.9,12.6-10,25.2-14.7,38c-1,2.7-3.2,3.6-5.1,5.2c-1.4,0.8-2.8,1.7-4.2,2.5l0,0l-5.6,3.6l0,0
			l-0.2,0.1c-0.3,0.1-0.6,0.2-0.9,0.1c-0.7-0.2-0.2-1.1-0.2-1.7c0-1.8,0.1-3.7,0.2-5.5c0.4-5.6,0.7-11.1,1.1-16.7
			c0.1-1.1,0.1-2,1-2.8c9.4-8.2,18.7-16.4,28-24.7c0.2-0.1,0.4-0.2,0.6-0.3C1410.2,152.3,1409.8,153,1409.5,153.7z"/>
	</g>
	<path class="st10" d="M1248.1,248.7c-35.1,2.8-73.5-10-92-39.4"/>
	<path class="st14" d="M1111.3,159.8c-11.4-27.8-37-49.1-63.5-59.4"/>
	<path class="st12" d="M874.3,226.9c17.5-15.8,28.3-30.8,36.4-50.6c8.7-21.5,17.5-43.1,33-60.7c8.7-9.9,19.3-18.1,31.5-23.3"/>
</g>
<path class="st1" d="M42.6,398.3"/>
<path class="st15" d="M-1624.7,36.2l-1.1-0.7c0,0-7.7,9.2-12.5,11.5C-1638.3,47-1632.5,44.5-1624.7,36.2z"/>
<path class="st15" d="M-1622.3,37.9l-1.6-1.1c0,0-11.2,13.4-18.2,16.8C-1642.2,53.6-1633.6,50-1622.3,37.9z"/>
<path class="st15" d="M-1612.8,50.3l-0.4,2.7c-9.6,8.8-19.3,10-20,10.1C-1624.4,61.4-1613.8,51.3-1612.8,50.3z"/>
<path class="st15" d="M-1613.4,54.6l-0.3,2.3c-3.2,2.5-6.3,3.6-7.6,4C-1617.8,59.8-1614.7,56.2-1613.4,54.6z"/>
<g class="st16">
	<path class="st17" d="M1385,811.7c1.2,3.1-0.4,6.6-3.6,7.7c-2.7,0.9-5.7,1.3-8.7,1.3c-13.8,0-21.7-7.3-21.7-21.3V769h-4.5
		c-3.2,0-5.9-2.6-5.9-5.9V763c0-3.2,2.6-5.9,5.9-5.9h4.5v-8.6c0-3.2,2.6-5.9,5.9-5.9h3.1c3.2,0,5.9,2.6,5.9,5.9v8.6h11
		c3.2,0,5.9,2.6,5.9,5.9v0.1c0,3.2-2.6,5.9-5.9,5.9h-11v30c0,6.1,3.1,9.5,8.7,9.5c1.2,0,2.4-0.1,3.6-0.4
		C1381,807.5,1384,808.9,1385,811.7L1385,811.7z"/>
	<path class="st17" d="M1445.3,793.1h-42.1c-1.7,0-2.9,1.8-2.3,3.4c2.8,7.3,9.9,11.7,19.5,11.7c5.1,0,9.4-1.2,13.1-3.5
		c2.6-1.7,6-1.1,8,1.2l0,0c2.4,2.8,1.9,7.1-1.1,9.2c-5.4,3.7-12.3,5.7-20.4,5.7c-20.9,0-34.6-13.3-34.9-31.7
		c-0.3-18,14.6-32.9,32.6-32.9c18.4,0,31.9,12.9,31.9,32.6l0,0C1449.7,791.1,1447.7,793.1,1445.3,793.1z M1402.9,783.3h29.7
		c1.7,0,2.8-1.6,2.3-3.2c-2.2-7.3-8.7-12.1-17.2-12.1c-8.4,0-14.8,4.7-17.2,12.1C1400.1,781.6,1401.2,783.3,1402.9,783.3z"/>
	<path class="st17" d="M1452.9,788.4c0-18.9,14.2-32.3,34.2-32.3c9,0,16.6,2.7,22,7.9c3.2,3,2.4,8.3-1.4,10.5l0,0
		c-2.6,1.5-5.9,1.1-8-0.9c-3.5-3.4-7.9-4.9-12.6-4.9c-10.9,0-19.1,7.6-19.1,19.7c0,12.3,8.3,19.7,19.1,19.7c4.7,0,9.1-1.6,12.6-4.9
		c2.2-2.1,5.4-2.4,8-0.9l0,0c3.8,2.2,4.6,7.5,1.4,10.5c-5.4,5.2-13,8-21.9,8C1467.1,820.8,1452.9,807.3,1452.9,788.4z"/>
	<path class="st18" d="M269.5,576.9c-5.3-5.3-12.6-8.5-20.6-8.5c-16.1,0-29.1,13-29.1,29.1v125.4L102,579.1
		c-5.5-6.7-13.8-10.7-22.5-10.7h-5.9c-16.1,0-29.1,13-29.1,29.1v196.3c0,8,3.3,15.3,8.5,20.6c1,1,2,1.9,3.2,2.7
		c0.4,0.3,0.9,0.6,1.3,0.9c0.3,0.2,0.7,0.4,1.1,0.7c4,2.4,8.6,3.9,13.5,4.2h0.1c0.5,0,0.9,0,1.4,0c8.6,0,16.2-3.7,21.5-9.5l0,0
		c4.7-5.2,7.6-12,7.6-19.5V668.4l118.2,143.9c5.5,6.7,13.8,10.6,22.5,10.6h5.5c16.1,0,29.1-13,29.1-29.1V597.5
		C278,589.4,274.7,582.2,269.5,576.9z"/>
	
		<linearGradient id="SVGID_3_" gradientUnits="userSpaceOnUse" x1="307.3" y1="-333.8001" x2="537.8" y2="-333.8001" gradientTransform="matrix(1 0 0 -1 0 364)">
		<stop  offset="0" style="stop-color:#C3AF39"/>
		<stop  offset="1" style="stop-color:#C9AC36"/>
	</linearGradient>
	<path class="st19" d="M307.3,710.9V597.5c0-16.1,13-29.1,29.1-29.1h0.7c16.1,0,29.1,13,29.1,29.1v111.2c0,48.4,21.1,68.3,56.7,68.3
		c36,0,56.7-20,56.7-68.3V597.5c0-16.1,13-29.1,29.1-29.1l0,0c16.1,0,29.1,13,29.1,29.1v113.4c0,74.9-42.9,116.3-115.2,116.3
		C350.2,827.3,307.3,785.8,307.3,710.9z"/>
	<path class="st20" d="M782.3,799.4L782.3,799.4c0,13.3-10.8,24.1-24.1,24.1H582.9c-13.3,0-24.1-10.8-24.1-24.1v-5.5
		c0-5.6,2-11.1,5.6-15.4L699,616H585.8c-13.3,0-24.1-10.8-24.1-24.1l0,0c0-13.3,10.8-24.1,24.1-24.1h166.9
		c13.3,0,24.1,10.8,24.1,24.1v5.6c0,5.6-2,11-5.5,15.4L637,775.3h121.3C771.5,775.3,782.3,786.1,782.3,799.4z"/>
	
		<linearGradient id="SVGID_4_" gradientUnits="userSpaceOnUse" x1="805.7999" y1="-329.5" x2="1039.1" y2="-329.5" gradientTransform="matrix(1 0 0 -1 0 364)">
		<stop  offset="0.2107" style="stop-color:#48BEA9"/>
		<stop  offset="0.3217" style="stop-color:#58BF97"/>
	</linearGradient>
	<path class="st21" d="M1039.1,595.7v195.6c0,16.3-13.2,29.4-29.4,29.4l0,0c-16.3,0-29.4-13.2-29.4-29.4v-74.9H864.6v74.9
		c0,16.3-13.2,29.4-29.4,29.4l0,0c-16.3,0-29.4-13.2-29.4-29.4V595.7c0-16.3,13.2-29.4,29.4-29.4l0,0c16.3,0,29.4,13.2,29.4,29.4
		v70.9h115.6v-70.9c0-16.3,13.2-29.4,29.4-29.4l0,0C1025.9,566.3,1039.1,579.5,1039.1,595.7z"/>
	<path class="st22" d="M1319.7,782.3l-84.8-189.5c-3.6-8.1-9.4-14.7-16.5-19.3s-15.5-7.2-24.3-7.2c-17.7,0-33.8,10.4-41,26.6
		l-84.5,189.5c-1.7,3.7-2.4,7.4-2.4,11.1c0,14.4,11.6,27.3,27.3,27.3c11.1,0,21-6.7,25.2-16.9l7.4-17.8l8.2-19.8h0.1l36.2-86.8h0.1
		l22.9-55.3l28.8,69.4l11.6,28l18.5,44.7l15.6,37.6c4.2,10.2,14.2,16.9,25.2,16.9h1.4C1314.5,820.8,1327.7,800.4,1319.7,782.3z"/>
	<g class="st23">
		<g>
			<path class="st24" d="M213.5,634.7c-3.1-0.6-6.3-1.2-9.4-1.7"/>
			<path class="st25" d="M174.7,630.8c-7.3,0.1-14.5,0.7-21.7,1.9c-29.8,4.9-57.3,20.6-75.1,45.2C63.5,697.7,55.4,721,51,745"/>
			<path class="st24" d="M48.8,759.6c-0.4,3.2-0.7,6.4-1,9.5"/>
		</g>
	</g>
	<path class="st26" d="M282.8,657.7c8.2,6.9,16.3,13.8,24.5,20.7"/>
	<path class="st27" d="M372,721.6c10.9,23.3,23.7,44.6,45,59.5c25.6,14.9,51.1,21.3,78.8,14.9c36.2-8.5,51.1-40.5,72.4-68.1
		c31.9-51.1,51.1-102.2,64.2-160.1"/>
	<path class="st28" d="M805.7,732.9"/>
	<path class="st29" d="M584.5,623.3c1.6,20.6,2.3,41.8,9.5,61.4c7.1,19.2,21.9,37,37.3,50.3c8.7,7.4,18.3,13.7,28.6,18.5
		c42.6,19.2,89.4,23.4,135.1,11"/>
	<g class="st23">
		<path class="st30" d="M1454,615.2c0.7-4.3-1-6.3-5.3-6.2c-7.7,0.1-14.4,2.5-20.3,7.5c-10.5,8.9-21.1,17.6-31.4,26.7
			c-2.9,2.6-5.6,3-8.9,1.7c-0.5,0.2-1,0.1-1.5-0.2c-1.8-0.1-3.5-0.3-5.1-0.8h-0.2l-39.6-6.1l-0.5-0.1l0,0l-4.5-0.7
			c-0.2-0.1-0.4-0.1-0.6-0.1l0,0c-0.8,0-1.4,0.5-2,1.2c-2.1,2.6-4.2,5.1-6.5,7.5c-1.4,1.4-1.4,2.1,0.3,3.2
			c9.4,6.5,18.8,12.9,28.3,19.1c1.4,0.9,3.8,1.8,3.9,2.9c0.1,1-0.9,1.8-1.9,2.5c-8.7,11.3-46.4,58.5-93.2,87.8
			c10.1-5.3,20.1-10.7,29.9-16.4c28.2-16,55.6-33.3,80.6-54.1c22.9-19.2,45-39.4,68.5-57.8C1449.7,628.4,1452.8,622.2,1454,615.2z
			 M1362.5,652.8L1362.5,652.8L1362.5,652.8C1362.5,652.7,1362.5,652.7,1362.5,652.8C1362.5,652.7,1362.5,652.7,1362.5,652.8z
			 M1153,810.8c0.1,0,0.2,0,0.2-0.1v-0.1C1153.2,810.7,1153.1,810.7,1153,810.8z"/>
		<path class="st30" d="M1409.6,668.6c-4.9,12.6-10,25.2-14.7,37.9c-1,2.7-3.2,3.6-5.1,5.2c-1.4,0.8-2.8,1.7-4.2,2.5l0,0l-5.6,3.6
			l0,0l-0.2,0.1c-0.3,0.1-0.6,0.2-0.9,0.1c-0.7-0.2-0.2-1.1-0.2-1.7c0-1.8,0.1-3.7,0.2-5.5c0.4-5.6,0.7-11.1,1.1-16.7
			c0.1-1.1,0.1-2,1-2.8c9.4-8.2,18.7-16.4,28-24.6c0.2-0.1,0.4-0.2,0.6-0.3C1410.3,667.1,1409.9,667.9,1409.6,668.6z"/>
	</g>
	<path class="st26" d="M1248.5,763.4c-35.1,2.8-73.4-10-91.8-39.4"/>
	<path class="st31" d="M1111.9,674.7c-11.3-27.7-36.9-49-63.5-59.4"/>
	<path class="st29" d="M875.2,741.7c17.5-15.8,28.3-30.7,36.3-50.6c8.7-21.5,17.5-43,33-60.6c8.7-9.9,19.3-18.1,31.4-23.3"/>
</g>
</svg>
