<?xml version="1.0" encoding="utf-8"?>
<!-- Generator: Adobe Illustrator 23.0.1, SVG Export Plug-In . SVG Version: 6.00 Build 0)  -->
<svg version="1.1" id="Layer_1" xmlns="http://www.w3.org/2000/svg" xmlns:xlink="http://www.w3.org/1999/xlink" x="0px" y="0px"
	 viewBox="0 0 685.9 474.8" style="enable-background:new 0 0 685.9 474.8;" xml:space="preserve">
<style type="text/css">
	.st0{display:none;}
	.st1{display:inline;fill-rule:evenodd;clip-rule:evenodd;fill:#FFFFFF;}
	.st2{display:inline;fill-rule:evenodd;clip-rule:evenodd;fill:#1D262D;}
	.st3{display:inline;}
	.st4{fill-rule:evenodd;clip-rule:evenodd;fill:#1D262D;}
	.st5{fill-rule:evenodd;clip-rule:evenodd;fill:#98CA31;}
</style>
<g class="st0">
	<path class="st1" d="M158.6-252.4c-5.9-0.6-10.2-3.3-14.6-6.8c1.1-1.5,1.9-2.8,2.9-3.8c1-1.1,2.3-1.9,3.7-3.1c2.4,2.2,3,5,4.4,7.3
		C156.3-256.8,157.4-254.6,158.6-252.4z"/>
	<path class="st2" d="M26.8-318.6c4.9-1.6,9.3-1.6,13.7-1.6c13,0.1,26,0.2,39-0.1c22.8-0.7,45.7-1.7,68.5-2.6
		c17.2-0.7,34.2,1.3,51.2,4c0.5,0.1,0.9,0.6,1.9,1.4c-1.3,1.3-2.5,2.6-3.9,3.8c-6.4,5.7-12.8,11.4-19.2,17c-3,2.6-4.4,5.6-4.8,9.8
		c-1.3,13.6-2.7,27.2-6.6,40.4c-0.3,1.2-0.7,2.3-1.2,3.9c-9.9-1.8-18.2-5.9-25.5-12.5c-6.9,3.8-10.6,10.4-16.3,15.4
		c-6.2-1.6-11.6-4.9-16.5-8.6c-10.1-7.7-20-15.7-29.7-23.8c-13.2-10.9-26.2-22.1-39.3-33.2c-3.2-2.7-6.4-5.2-9.3-8.2
		C27.8-314.7,27.6-316.7,26.8-318.6z M54.5-303.2c1,1.2,1.4,2,2.1,2.6c15.9,13.6,31.7,27.2,47.7,40.6c5.5,4.6,11.5,8.6,17.1,12.9
		c15.7-13,24.9-21.7,27.4-26.1c-0.2-0.2-0.4-0.6-0.6-0.7c-31.2-8.4-61.4-19.7-92-29.8C55.9-303.8,55.6-303.5,54.5-303.2z
		 M191.4-313.9c-41.1-3.6-80.2,0-119.6,1c1.2,3.3,3.7,2.9,5.8,3.2c21.3,3.4,42.6,6.7,63.9,9.9c9.1,1.4,18.2,2.5,27.3,3.8
		c2.7,0.4,4.9,0,6.9-2C180.3-302.8,185-307.5,191.4-313.9z M79.7-303.2c3.4,3.1,7,3.6,10.2,4.8c18.7,7,37.4,14,56.1,20.9
		c4.3,1.6,7.7,3.6,8.9,8.8c0.9,3.6,3.4,6.7,5.4,10c0.5,0.9,1.6,1.5,3.3,3c0.2-12.6,2.9-23.7,2.7-35.2
		C137.5-295,109.1-299,79.7-303.2z M158.6-252.4c-1.2-2.2-2.3-4.4-3.6-6.5c-1.4-2.3-1.9-5.1-4.4-7.3c-1.4,1.2-2.7,2.1-3.7,3.1
		c-1,1.1-1.9,2.4-2.9,3.8C148.4-255.7,152.7-253,158.6-252.4z"/>
	<g class="st3">
		<path class="st4" d="M269.4-236.4c-0.9-2.2-1.7-3.5-1.9-4.8c-0.2-1,0-2.4,0.6-3.1c1.5-1.5,2.6-2.7,2.1-5.2c-0.5-3,1.7-4.6,4.2-6.1
			c1.4,0.8,2.9,1.5,4.7,2.5c1.8-1.1,3.7-2.2,5.6-3.4c2.9,0.6,4.4,3.5,4.5,9.4c4,0.7,8.2,1.4,12.1,2c0.6,0.9,1.1,1.3,1.1,1.8
			c0,1.7-0.1,3.3-0.2,5.4c-8.3,1.9-15.4-1.3-23.1-3.5C276.3-240,273.3-238.4,269.4-236.4z"/>
		<path class="st4" d="M475-126.5c2.3,0.4,4.5,0.7,6.7,1.1c0.2,1.2,0.6,2.2,0.4,2.8c-2.6,7.7-6.1,14.9-10.8,21.9
			c-3.3-0.7-4.6-3.3-6.7-5.8C468-113,471.4-119.6,475-126.5z"/>
		<path class="st4" d="M445.5-82.1c2.4-2.8,4.9-5.5,7.3-8.4c2.2-2.6,4.3-5.3,6.4-7.9c3.5,0.9,4.7,3.6,6.8,5.8
			c-3.9,6.7-8.6,12.3-14.5,16.7C447.4-78.4,447.4-78.5,445.5-82.1z"/>
		<path class="st4" d="M474.8-222.9c4,7.6,5.9,14.8,7.7,22.1c-1.3,0.9-2.2,1.7-3.2,2.2c-1,0.5-2.1,0.7-3,1c-0.7-0.5-1.5-0.7-1.6-1.1
			c-2.2-6.5-4.3-13-6.6-19.8C470.3-220,472.2-221.2,474.8-222.9z"/>
		<path class="st4" d="M477.2-187.7c2.1-1.1,4.1-2.1,5.9-3c0.8,0.6,1.5,0.8,1.6,1.2c1.5,6.9,2.9,13.9,2.4,21.6
			c-2.1,0.8-4.1,1.5-5.9,2.1c-0.8-0.7-1.5-1-1.6-1.4C478.4-173.9,477.4-180.6,477.2-187.7z"/>
		<path class="st4" d="M487.3-157.3c1,7.8-0.3,15.3-2.2,23.4c-2.6-0.5-4.7-0.9-7.3-1.4c0.7-7,1.4-13.5,2-19.9
			C481.9-157.5,484.2-158.3,487.3-157.3z"/>
		<path class="st4" d="M403.8-288c-0.2,3.4-0.4,5.2-0.5,7.3c-6.6,0.9-12.7,1.8-19,2.7c-2.1-2.4-2.1-2.4-2.8-6
			C388.2-287.6,395.4-287.8,403.8-288z"/>
		<path class="st4" d="M435.5-266.1c1.9-2,3.2-3.5,4.5-4.8c6.8,3.9,10.9,7.9,15.7,15.2c-1.5,1.2-3,2.4-4.8,3.9c-3.2-1.9-5-5-7.5-7.2
			C440.7-261.3,438.2-263.6,435.5-266.1z"/>
		<path class="st4" d="M348.6-266c1.5,2.6,2.4,4.3,3.5,6.3c-4.5,5.1-9.9,8.4-16,11.6c-2.2-2.7-2-5.4-1.5-8.3
			C338.9-259.8,343.2-262.9,348.6-266z"/>
		<path class="st4" d="M243.2-233.2c5.5-2.2,10.3-4.1,15.1-6c2.9,1.2,3.2,3.7,3.7,6.2c-6.6,4.4-10.9,6-18.8,6.9
			C243.2-228.4,243.2-230.5,243.2-233.2z"/>
		<path class="st4" d="M281.2-305.9c1.2,1.3,1.9,1.8,2.3,2.5c0.5,1,0.9,2.1,1.3,3.3c-3.2,4.8-6.4,9.5-9.6,14.2c-3.7-1-3.7-1-6.6-3.4
			C271.4-295.5,275.5-300.8,281.2-305.9z"/>
		<path class="st4" d="M412.5-279.2c0.1-2.3,0.3-4.4,0.4-7c7.8,1.5,14.1,4.7,20,9.4c-0.9,2-1.8,3.7-2.8,5.8
			c-3.5-0.5-5.8-2.9-8.6-4.1C418.6-276.4,415.8-277.7,412.5-279.2z"/>
		<path class="st4" d="M443.6-68.5c-4.9,3.8-9.6,7.5-14.9,11.5c-1.6-2.1-2.9-3.8-4.8-6.3c2.3-1.9,4.3-3.6,6.3-5.2
			c2.4-2,4.8-4.1,7.1-6.1C440.6-73.5,442.7-71.9,443.6-68.5z"/>
		<path class="st4" d="M464.5-227.7c-2.8-5.2-5.7-10.4-8.8-16.1c1.6-1.5,3.1-2.9,4.7-4.4c1.1,0.6,2.1,0.9,2.4,1.5
			c3,4.9,5.8,9.8,8.5,14.3C469.9-229.1,467.6-228.2,464.5-227.7z"/>
		<path class="st4" d="M355.8-270.6c5.2-4.5,10.5-7.1,16.4-10c1,2.4,1.9,4.3,3,6.7c-5.2,3.2-10,6.2-14.6,9.1
			c-0.9-0.3-1.6-0.4-1.9-0.8C357.8-267,357-268.5,355.8-270.6z"/>
		<path class="st4" d="M310.1-238.6c-0.5-4.6,1.1-7.6,5.8-8.9c3-0.9,5.9-2.1,8.9-3.2c2.8,1.5,2.3,4.4,3,6.6
			C321.2-239.4,317.2-238.1,310.1-238.6z"/>
		<path class="st4" d="M265.3-258.7c-2.6-8-2-14.5,0.4-21.6c2.4,0.9,4.5,1.6,6.8,2.5c-0.3,4.5-0.5,8.8-0.8,13.4
			C270-262.9,268.2-261.2,265.3-258.7z"/>
		<path class="st4" d="M217.5-223.1c1-4.6,2.6-7.2,6.8-7.4c3.1-0.1,6.2-0.3,9.8-0.5c0.2,2.5,0.3,4.3,0.5,6.5
			C229.2-221.9,223.9-222.4,217.5-223.1z"/>
		<path class="st4" d="M211.1-230.4c-1.4,2.7-2.3,4.4-3.2,6.2c-5.8-0.5-10.7-2.2-15.5-4.8c2.7-6,2.9-6.2,7.3-5
			C203.2-232.9,206.7-231.8,211.1-230.4z"/>
		<path class="st4" d="M306.3-309.2c-5,1.2-9.4,2.2-14.4,3.4c-0.8-1.4-1.6-3-2.7-5c4.3-3.7,9.1-4.3,14-4.4
			C306.8-315.4,307.3-314.4,306.3-309.2z"/>
		<path class="st4" d="M298.9-270.1c1.8,1.6,3.4,3.1,5.5,5c-2.7,3.9-5.8,7-9.2,9.3c-0.8-0.2-1.2-0.1-1.3-0.3c-1.1-1.6-2.1-3.3-3.1-5
			C292.5-265.1,295.5-267.5,298.9-270.1z"/>
		<path class="st4" d="M309.7-271.5c-2.1-2.4-3.3-3.9-4.9-5.7c2.4-3.6,4.8-7.2,7.3-11c2,0.2,3.9,0.5,5.7,0.7c0.2,0.9,0.6,1.5,0.4,2
			C316.2-280.8,313.2-276.7,309.7-271.5z"/>
		<path class="st4" d="M316.4-310.6c4.5,4.1,6.6,8.5,5.5,13.8c-2.4,2.1-4,0.4-6-0.1C315.7-301.4,311.4-305.5,316.4-310.6z"/>
		<path class="st4" d="M418.1-56.8c1.4,1.7,2.4,3,3.6,4.5c-3.6,3.9-6.9,7.6-12.8,7.2C410.3-50.3,410.3-50.3,418.1-56.8z"/>
		<path class="st4" d="M188.4-238.5c-1.6,1.9-2.6,3.1-3.7,4.4c-3.4-1.1-5.1-3.3-6.4-5.9c-0.5-1-0.7-2.3-0.5-3.3c0.2-1,1.1-2,1.9-2.5
			c0.5-0.3,1.8,0.1,2.3,0.5C184-243.3,185.9-241.1,188.4-238.5z"/>
	</g>
</g>
<g>
	<path class="st5" d="M292.2,404c-0.7,3.3-1.3,6-1.8,8.2c-1.8,0.8-2.8,1.6-3.6,1.5c-4-0.6-8-1.4-12.6-2.2
		c-4.6,3.5-9.3,7.1-14.8,11.2c-2.8-3.1-5.3-5.8-8.3-9c2.2-3.1,4.1-5.7,6.6-9.1c-1.7-1.9-3.7-4-6.2-6.8c2.3-2.6,4.8-5.3,7.2-8
		c3.8,1,6.7,1.8,10.2,2.7c2.7-3.9,5.5-7.9,8.8-12.6c2.7,1.1,5.3,2.2,8.8,3.6c-1.3,4.9-2.5,9.5-3.9,14.8
		C285,399.7,287.9,401.4,292.2,404z"/>
	<path class="st5" d="M187.6,426.4c-0.2,3.1-0.3,6.4-0.5,9.2c-1.7,0.8-2.6,1.7-3.4,1.7c-15.8-1-29.8-4.9-41.7-11.6
		c1.7-3.2,3.4-6.5,4.8-9.2C150.7,415,178.4,422.1,187.6,426.4z"/>
	<path class="st5" d="M94.6,399.1c3.8-3.8,6.6-6.5,9.7-9.5c10.5,6.7,19.3,12.4,29,18.6c-2.4,4.1-4.4,7.7-7,12.1
		C114.9,414.7,104.7,409.3,94.6,399.1z"/>
	<path class="st5" d="M236.4,418.7c2.2,3.7,4.1,6.9,5.6,9.5c-2.3,5.1-21.1,9.5-37,9.6c-3.2-3.9-1.6-7.9,0.2-12.6
		C214.7,423.1,224.6,421.1,236.4,418.7z"/>
	<path class="st5" d="M24.2,282.9c4.6-0.5,8.6-0.9,12-1.2c1.3,1.2,2.4,1.7,2.7,2.5c2.6,7.8,5.1,15.7,7.5,23.1
		c-2.8,5.3-7.7,5.2-12.1,5.8c-0.9-0.6-2.1-1-2.5-1.8C27.6,302.5,25,293.3,24.2,282.9z"/>
	<path class="st5" d="M469.9,352.3c1,5,1.8,8.6,2.7,12.8c-10.2,3.8-19.6,7.4-28.7,10.8c-4.8-3-6.1-6.8-5.3-12.1
		C447.6,359,457.5,355.6,469.9,352.3z"/>
	<path class="st5" d="M35.3,267.9c-4.4,0-7.2,0.6-9.5-0.2c-2.1-0.7-4.9-2.8-5.1-4.6c-1.3-9.6-2.5-19.2-1.1-29
		c4.5-2.4,8.2-0.6,12.6,1.2C34.5,245.3,34.8,255.8,35.3,267.9z"/>
	<path class="st5" d="M38.7,328.9c5.2-3.2,9-5.5,14.9-4.1c3.9,6.6,8.2,13.7,12.4,20.8c-2.1,5.2-6.2,7.4-11.9,9
		C47.3,347,43.1,338.5,38.7,328.9z"/>
	<path class="st5" d="M517.7,341.6c0.4,4.8,0.6,8,0.9,11.5c-9.6,3.8-19.1,5.2-29.8,6.8c-1.4-3.6-2.8-7-4.4-10.9
		C495.1,344,505.2,341.5,517.7,341.6z"/>
	<path class="st5" d="M394,383.1c10.1-4.7,18.3-8.5,27.6-12.9c2,3.8,3.7,7.1,5.6,10.6c-8.4,7.2-18,10.2-28.5,14.2
		C397.3,391.3,395.9,387.9,394,383.1z"/>
	<path class="st5" d="M93.2,379.8c-2.9,3.1-5.4,6-8.1,8.8c-1.9-0.6-3.8-0.6-4.7-1.5c-5.5-5.6-10.8-11.5-17-18
		c3.9-3.2,7.2-5.9,10-8.3c2,0.5,3.3,0.4,3.9,0.9C83.1,367,88.6,372.6,93.2,379.8z"/>
	<path class="st5" d="M381.7,402.2c-9.9,4.6-19.6,7.2-29.8,8.3c-3-10.7-2.8-11.3,5.1-13.8c6.8-2.2,13.7-4.1,20.1-6.1
		C382.4,393.2,382.3,397,381.7,402.2z"/>
	<path class="st5" d="M559.6,336.1c0.5,3.1,1,6.2,1.7,10.1c-8.4,4-16.8,4.3-26.3,4.3c-0.7-4-1.3-7.5-1.8-10.8
		C544.4,335.2,545.7,335,559.6,336.1z"/>
	<path class="st5" d="M22.9,190.5c4.5,1,7.4,1.7,11.1,2.6c0,4.5,0.2,8.8,0,13c-0.2,4.3-0.7,8.6-1.1,12.3c-4.6,2.9-7.5-0.3-11.3-0.3
		C18.6,209.1,20.8,200.7,22.9,190.5z"/>
	<path class="st5" d="M576.6,344.8c-0.3-4.2-0.5-7-0.8-10.6c10-2.2,19.4-1.6,29.5-0.5c0,3.2,0,5.9,0,9.1
		C596.1,344.9,587.2,346,576.6,344.8z"/>
	<path class="st5" d="M234.3,326.6c7.7,9.9-0.5,18.5,0.9,27.8c-4,0.6-7.4,1-10.8,1.5c-3.4-5.6-2.1-10.9-0.8-15.9
		C224.9,334.7,227.9,330.3,234.3,326.6z"/>
	<path class="st5" d="M658,336.5c-12.9,6.5-23.9,7.5-35.3,5.3c-1.1-0.2-2.4-1.9-2.5-3c-0.1-1.2,0.7-3.3,1.6-3.6
		C633,332.1,644.2,328.8,658,336.5z"/>
	<path class="st5" d="M333.5,403.3c0,3.4,0,6.1,0,8.8c-9.9,3.9-11.5,4-25.7,2.2c-1.7-3.7-0.7-7,2.8-10.4
		C317.7,402.9,325.2,402.3,333.5,403.3z"/>
	<path class="st5" d="M54.6,116.7c-3.8-2.7-5.7-4.2-7.5-5.5c3.3-12,4.2-13.7,12.9-24c2.3,1.7,4.5,3.3,7.3,5.3
		C63.1,100.4,59.2,107.7,54.6,116.7z"/>
	<path class="st5" d="M289.9,368.8c-1.7,0.3-2.8,0.8-3.6,0.5c-1.9-0.6-3.7-1.5-6.3-2.6c0-5.3-0.1-10.6,0-15.9c0.1-4,0.3-4,7.2-8.2
		C292.2,351.2,292.3,359.9,289.9,368.8z"/>
	<path class="st5" d="M250,379.9c-4.2,3.2-6.9,5.2-9.8,7.4c-6-4.2-9.1-9.6-11.4-15.3c2.2-5.1,6.8-3.8,11.9-4.1
		C243.2,371.2,246.1,374.9,250,379.9z"/>
	<path class="st5" d="M40.7,125.5c8,4,8.7,4.8,7.5,9.3c-1.1,4.2-2.8,8.3-4,11.9c-4.9,3.1-6.9-0.9-10.4-2
		C34.6,137.4,36.4,131.1,40.7,125.5z"/>
	<path class="st5" d="M82.8,57.4c2,1.6,3.4,2.8,5.3,4.4c-2.6,7.1-7.7,12.2-13.2,18.1c-2.3-1.8-4.1-3.3-6.4-5.2
		C71.9,67.7,76.6,62.4,82.8,57.4z"/>
	<path class="st5" d="M276.4,331.1c-8.2,10.3-16.2,0.6-24.5,1.6c-0.6-3-1-5.2-1.6-8.2C260.7,322.4,268.8,324.7,276.4,331.1z"/>
	<path class="st5" d="M29.4,158.2c10.3,4.5,10.4,4.5,9.3,10.9c-0.5,2.8-1.7,5.4-2.5,7.9c-9.4,0.2-11.2-0.9-10.2-6.6
		C26.7,166.8,28,163.2,29.4,158.2z"/>
	<path class="st5" d="M95.4,45.7c2.9-4.4,6-7,11.5-7.3c0.1,1.5,0.8,3.3,0.2,3.9c-2.3,2.3-4.8,4.5-7.6,6.2
		C99,48.8,96.8,46.7,95.4,45.7z"/>
</g>
</svg>
