<?xml version="1.0" encoding="utf-8"?>
<!-- Generator: Adobe Illustrator 23.0.1, SVG Export Plug-In . SVG Version: 6.00 Build 0)  -->
<svg version="1.1" id="Layer_1" xmlns="http://www.w3.org/2000/svg" xmlns:xlink="http://www.w3.org/1999/xlink" x="0px" y="0px"
	 viewBox="0 0 685.9 474.8" style="enable-background:new 0 0 685.9 474.8;" xml:space="preserve">
<style type="text/css">
	.st0{fill-rule:evenodd;clip-rule:evenodd;fill:#FF9D00;}
	.st1{display:none;}
	.st2{display:inline;fill-rule:evenodd;clip-rule:evenodd;fill:#98CA31;}
</style>
<g>
	<path class="st0" d="M65.2,74.6c1.3,1.6,2,2.8,2.9,3.6c22,18.8,43.9,37.7,66.1,56.4c7.6,6.4,15.9,12,23.7,17.8
		c21.8-18,34.5-30.1,38-36.2c-0.3-0.3-0.5-0.8-0.9-0.9C151.9,103.6,110,87.8,67.5,73.9C67.2,73.7,66.7,74.1,65.2,74.6z M255,59.6
		c-57.1-5-111.3,0-165.8,1.4c1.6,4.6,5.2,4,8,4.4c29.5,4.6,59.1,9.3,88.6,13.7c12.6,1.9,25.3,3.5,37.9,5.3c3.7,0.5,6.9,0,9.6-2.8
		C239.6,75,246.1,68.6,255,59.6z M100.2,74.5c4.8,4.3,9.7,5,14.2,6.6c25.9,9.7,51.9,19.4,77.8,29c6,2.2,10.6,5,12.4,12.1
		c1.2,5,4.7,9.3,7.4,13.9c0.7,1.2,2.2,2.1,4.5,4.1c0.3-17.4,4-32.8,3.8-48.7C180.3,85.8,140.9,80.3,100.2,74.5z M266,52.7
		c-23.5-3.8-47.1-6.5-71-5.6c-31.7,1.2-63.3,2.7-95,3.6c-18,0.5-36.1,0.4-54.1,0.2c-6.2,0-12.2,0.1-19,2.2c1,2.7,1.3,5.5,2.8,7
		c4,4.1,8.5,7.6,12.9,11.3c18.2,15.4,36.2,30.8,54.5,46c13.5,11.2,27.2,22.4,41.2,33c6.8,5.2,14.4,9.7,22.9,12
		c7.9-7,13-16.2,22.6-21.4c10.1,9.2,21.7,14.9,35.4,17.4c0.7-2.1,1.2-3.7,1.7-5.3c5.3-18.3,7.3-37.1,9.1-56c0.5-5.8,2.5-10,6.7-13.6
		c8.9-7.8,17.8-15.7,26.7-23.6c1.8-1.6,3.5-3.4,5.3-5.3C267.2,53.6,266.7,52.8,266,52.7z M189.3,135.5c1.5-2,2.7-3.8,4.1-5.3
		c1.4-1.5,3.2-2.7,5.2-4.3c3.4,3,4.2,6.9,6.1,10.1c1.7,2.9,3.3,6,4.9,9C201.4,144.2,195.4,140.3,189.3,135.5z"/>
	<g>
		<path class="st0" d="M363.2,164.9c-1.3-3.1-2.3-4.8-2.6-6.7c-0.2-1.4-0.1-3.4,0.8-4.3c2-2.1,3.6-3.8,3-7.2
			c-0.7-4.1,2.3-6.4,5.8-8.5c1.9,1,4,2.1,6.5,3.5c2.5-1.5,5.1-3.1,7.8-4.6c4,0.8,6,4.8,6.3,13.1c5.6,0.9,11.4,1.9,16.7,2.8
			c0.8,1.2,1.6,1.8,1.6,2.5c0.1,2.3-0.1,4.6-0.3,7.5c-11.5,2.7-21.4-1.8-32.1-4.9C372.8,160,368.6,162.1,363.2,164.9z"/>
		<path class="st0" d="M648.3,317.3c3.2,0.5,6.3,1,9.3,1.5c0.2,1.7,0.8,3,0.5,4c-3.6,10.6-8.5,20.7-15,30.3c-4.6-0.9-6.4-4.5-9.3-8
			C638.6,336,643.3,326.9,648.3,317.3z"/>
		<path class="st0" d="M607.4,378.9c3.3-3.8,6.8-7.7,10.1-11.6c3.1-3.6,6-7.3,8.9-10.9c4.8,1.2,6.5,5,9.4,8
			c-5.4,9.2-11.9,17-20.2,23.2C610,384,610,383.9,607.4,378.9z"/>
		<path class="st0" d="M648,183.6c5.5,10.6,8.1,20.5,10.7,30.6c-1.8,1.3-3,2.3-4.4,3c-1.4,0.7-2.9,1-4.2,1.4c-1-0.7-2-1-2.2-1.5
			c-3.1-9-6-18-9.1-27.4C641.8,187.7,644.4,186,648,183.6z"/>
		<path class="st0" d="M651.3,232.4c3-1.5,5.7-2.9,8.1-4.1c1.1,0.8,2.1,1.2,2.2,1.7c2.1,9.6,4.1,19.3,3.3,29.9c-2.9,1-5.7,2.1-8.2,3
			c-1.1-1-2.1-1.4-2.2-2C653,251.6,651.6,242.3,651.3,232.4z"/>
		<path class="st0" d="M665.3,274.6c1.4,10.8-0.5,21.2-3,32.5c-3.6-0.7-6.5-1.3-10.1-2c1-9.7,1.9-18.8,2.7-27.6
			C657.9,274.3,661,273.2,665.3,274.6z"/>
		<path class="st0" d="M549.6,93.4c-0.3,4.7-0.6,7.3-0.8,10.1c-9.1,1.3-17.6,2.5-26.3,3.8c-2.9-3.4-2.9-3.4-3.9-8.3
			C527.9,94,537.9,93.7,549.6,93.4z"/>
		<path class="st0" d="M593.5,123.8c2.6-2.8,4.4-4.8,6.2-6.7c9.4,5.4,15.2,11,21.8,21.1c-2,1.7-4.1,3.4-6.6,5.4
			c-4.5-2.6-6.9-6.9-10.5-10C600.8,130.4,597.3,127.2,593.5,123.8z"/>
		<path class="st0" d="M473.1,123.8c2,3.6,3.3,6,4.9,8.7c-6.2,7-13.7,11.7-22.2,16.1c-3.1-3.7-2.7-7.4-2.1-11.5
			C459.5,132.5,465.5,128.2,473.1,123.8z"/>
		<path class="st0" d="M326.9,169.3c7.6-3,14.3-5.6,20.9-8.3c4,1.7,4.5,5.1,5.1,8.5c-9.2,6.1-15.1,8.3-26,9.5
			C326.9,176.1,326.9,173.1,326.9,169.3z"/>
		<path class="st0" d="M379.6,68.6c1.7,1.8,2.6,2.5,3.2,3.5c0.8,1.4,1.2,2.9,1.9,4.6c-4.5,6.6-8.9,13.2-13.3,19.7
			c-5.2-1.3-5.2-1.3-9.2-4.7C366,83,371.6,75.6,379.6,68.6z"/>
		<path class="st0" d="M561.7,105.6c0.2-3.1,0.4-6.2,0.6-9.7c10.8,2.1,19.6,6.5,27.7,13c-1.3,2.7-2.5,5.2-3.8,8
			c-4.9-0.6-8.1-4-12-5.7C570.2,109.5,566.2,107.6,561.7,105.6z"/>
		<path class="st0" d="M604.8,397.7c-6.8,5.3-13.4,10.4-20.6,16c-2.3-3-4.1-5.3-6.7-8.7c3.2-2.7,6-4.9,8.7-7.2
			c3.3-2.8,6.6-5.7,9.9-8.4C600.5,390.8,603.5,393,604.8,397.7z"/>
		<path class="st0" d="M633.8,177c-3.9-7.2-7.9-14.4-12.2-22.3c2.2-2.1,4.3-4.1,6.5-6.2c1.5,0.9,2.9,1.2,3.4,2.1
			c4.1,6.7,8.1,13.5,11.8,19.9C641.2,175.1,638,176.2,633.8,177z"/>
		<path class="st0" d="M482.9,117.5c7.3-6.2,14.6-9.9,22.7-13.9c1.5,3.3,2.7,6,4.1,9.3c-7.2,4.5-13.8,8.6-20.2,12.6
			c-1.2-0.5-2.2-0.5-2.6-1C485.8,122.5,484.7,120.4,482.9,117.5z"/>
		<path class="st0" d="M419.7,161.9c-0.7-6.3,1.5-10.6,8-12.4c4.2-1.2,8.2-3,12.3-4.5c3.9,2.1,3.1,6,4.1,9.2
			C435.1,160.8,429.5,162.5,419.7,161.9z"/>
		<path class="st0" d="M357.5,134c-3.6-11.1-2.8-20.2,0.5-29.9c3.4,1.2,6.2,2.2,9.5,3.4c-0.4,6.3-0.7,12.2-1.1,18.6
			C364.1,128.2,361.5,130.5,357.5,134z"/>
		<path class="st0" d="M291.2,183.4c1.4-6.3,3.5-10,9.4-10.3c4.3-0.2,8.6-0.4,13.6-0.7c0.3,3.4,0.5,6,0.7,9
			C307.4,185.1,300.1,184.3,291.2,183.4z"/>
		<path class="st0" d="M282.3,173.2c-1.9,3.7-3.2,6.1-4.5,8.7c-8-0.7-14.9-3.1-21.5-6.6c3.7-8.3,4.1-8.6,10.1-6.9
			C271.4,169.7,276.2,171.4,282.3,173.2z"/>
		<path class="st0" d="M414.3,64c-6.9,1.6-13.1,3.1-20,4.7c-1-1.9-2.3-4.2-3.7-6.9c6-5.1,12.6-5.9,19.4-6.2
			C415,55.4,415.7,56.8,414.3,64z"/>
		<path class="st0" d="M404.1,118.2c2.5,2.3,4.8,4.3,7.6,6.9c-3.8,5.5-8,9.7-12.8,12.9c-1.1-0.2-1.7-0.2-1.8-0.4
			c-1.5-2.3-2.9-4.6-4.4-6.9C395.2,125.1,399.4,121.8,404.1,118.2z"/>
		<path class="st0" d="M419,116.3c-2.9-3.4-4.6-5.4-6.8-7.9c3.4-5,6.6-9.9,10.1-15.2c2.8,0.3,5.4,0.6,7.9,0.9
			c0.3,1.3,0.8,2.1,0.6,2.7C428.1,103.3,424,109,419,116.3z"/>
		<path class="st0" d="M428.3,62c6.3,5.7,9.1,11.7,7.6,19.1c-3.3,2.9-5.6,0.5-8.3-0.1C427.3,74.8,421.5,69.1,428.3,62z"/>
		<path class="st0" d="M569.3,413.9c1.9,2.4,3.3,4.1,5,6.2c-5,5.4-9.6,10.5-17.7,9.9C558.6,423,558.6,423,569.3,413.9z"/>
		<path class="st0" d="M250.8,162c-2.2,2.6-3.7,4.3-5.2,6.1c-4.7-1.5-7.1-4.5-8.8-8.1c-0.7-1.4-1-3.2-0.7-4.6
			c0.3-1.3,1.5-2.7,2.7-3.5c0.7-0.4,2.5,0.1,3.2,0.7C244.8,155.4,247.4,158.4,250.8,162z"/>
	</g>
</g>
<g class="st1">
	<path class="st2" d="M292.2,404c-0.7,3.3-1.3,6-1.8,8.2c-1.8,0.8-2.8,1.6-3.6,1.5c-4-0.6-8-1.4-12.6-2.2
		c-4.6,3.5-9.3,7.1-14.8,11.2c-2.8-3.1-5.3-5.8-8.3-9c2.2-3.1,4.1-5.7,6.6-9.1c-1.7-1.9-3.7-4-6.2-6.8c2.3-2.6,4.8-5.3,7.2-8
		c3.8,1,6.7,1.8,10.2,2.7c2.7-3.9,5.5-7.9,8.8-12.6c2.7,1.1,5.3,2.2,8.8,3.6c-1.3,4.9-2.5,9.5-3.9,14.8
		C285,399.7,287.9,401.4,292.2,404z"/>
	<path class="st2" d="M187.6,426.4c-0.2,3.1-0.3,6.4-0.5,9.2c-1.7,0.8-2.6,1.7-3.4,1.7c-15.8-1-29.8-4.9-41.7-11.6
		c1.7-3.2,3.4-6.5,4.8-9.2C150.7,415,178.4,422.1,187.6,426.4z"/>
	<path class="st2" d="M94.6,399.1c3.8-3.8,6.6-6.5,9.7-9.5c10.5,6.7,19.3,12.4,29,18.6c-2.4,4.1-4.4,7.7-7,12.1
		C114.9,414.7,104.7,409.3,94.6,399.1z"/>
	<path class="st2" d="M236.4,418.7c2.2,3.7,4.1,6.9,5.6,9.5c-2.3,5.1-21.1,9.5-37,9.6c-3.2-3.9-1.6-7.9,0.2-12.6
		C214.7,423.1,224.6,421.1,236.4,418.7z"/>
	<path class="st2" d="M24.2,282.9c4.6-0.5,8.6-0.9,12-1.2c1.3,1.2,2.4,1.7,2.7,2.5c2.6,7.8,5.1,15.7,7.5,23.1
		c-2.8,5.3-7.7,5.2-12.1,5.8c-0.9-0.6-2.1-1-2.5-1.8C27.6,302.5,25,293.3,24.2,282.9z"/>
	<path class="st2" d="M469.9,352.3c1,5,1.8,8.6,2.7,12.8c-10.2,3.8-19.6,7.4-28.7,10.8c-4.8-3-6.1-6.8-5.3-12.1
		C447.6,359,457.5,355.6,469.9,352.3z"/>
	<path class="st2" d="M35.3,267.9c-4.4,0-7.2,0.6-9.5-0.2c-2.1-0.7-4.9-2.8-5.1-4.6c-1.3-9.6-2.5-19.2-1.1-29
		c4.5-2.4,8.2-0.6,12.6,1.2C34.5,245.3,34.8,255.8,35.3,267.9z"/>
	<path class="st2" d="M38.7,328.9c5.2-3.2,9-5.5,14.9-4.1c3.9,6.6,8.2,13.7,12.4,20.8c-2.1,5.2-6.2,7.4-11.9,9
		C47.3,347,43.1,338.5,38.7,328.9z"/>
	<path class="st2" d="M517.7,341.6c0.4,4.8,0.6,8,0.9,11.5c-9.6,3.8-19.1,5.2-29.8,6.8c-1.4-3.6-2.8-7-4.4-10.9
		C495.1,344,505.2,341.5,517.7,341.6z"/>
	<path class="st2" d="M394,383.1c10.1-4.7,18.3-8.5,27.6-12.9c2,3.8,3.7,7.1,5.6,10.6c-8.4,7.2-18,10.2-28.5,14.2
		C397.3,391.3,395.9,387.9,394,383.1z"/>
	<path class="st2" d="M93.2,379.8c-2.9,3.1-5.4,6-8.1,8.8c-1.9-0.6-3.8-0.6-4.7-1.5c-5.5-5.6-10.8-11.5-17-18
		c3.9-3.2,7.2-5.9,10-8.3c2,0.5,3.3,0.4,3.9,0.9C83.1,367,88.6,372.6,93.2,379.8z"/>
	<path class="st2" d="M381.7,402.2c-9.9,4.6-19.6,7.2-29.8,8.3c-3-10.7-2.8-11.3,5.1-13.8c6.8-2.2,13.7-4.1,20.1-6.1
		C382.4,393.2,382.3,397,381.7,402.2z"/>
	<path class="st2" d="M559.6,336.1c0.5,3.1,1,6.2,1.7,10.1c-8.4,4-16.8,4.3-26.3,4.3c-0.7-4-1.3-7.5-1.8-10.8
		C544.4,335.2,545.7,335,559.6,336.1z"/>
	<path class="st2" d="M22.9,190.5c4.5,1,7.4,1.7,11.1,2.6c0,4.5,0.2,8.8,0,13c-0.2,4.3-0.7,8.6-1.1,12.3c-4.6,2.9-7.5-0.3-11.3-0.3
		C18.6,209.1,20.8,200.7,22.9,190.5z"/>
	<path class="st2" d="M576.6,344.8c-0.3-4.2-0.5-7-0.8-10.6c10-2.2,19.4-1.6,29.5-0.5c0,3.2,0,5.9,0,9.1
		C596.1,344.9,587.2,346,576.6,344.8z"/>
	<path class="st2" d="M234.3,326.6c7.7,9.9-0.5,18.5,0.9,27.8c-4,0.6-7.4,1-10.8,1.5c-3.4-5.6-2.1-10.9-0.8-15.9
		C224.9,334.7,227.9,330.3,234.3,326.6z"/>
	<path class="st2" d="M658,336.5c-12.9,6.5-23.9,7.5-35.3,5.3c-1.1-0.2-2.4-1.9-2.5-3c-0.1-1.2,0.7-3.3,1.6-3.6
		C633,332.1,644.2,328.8,658,336.5z"/>
	<path class="st2" d="M333.5,403.3c0,3.4,0,6.1,0,8.8c-9.9,3.9-11.5,4-25.7,2.2c-1.7-3.7-0.7-7,2.8-10.4
		C317.7,402.9,325.2,402.3,333.5,403.3z"/>
	<path class="st2" d="M54.6,116.7c-3.8-2.7-5.7-4.2-7.5-5.5c3.3-12,4.2-13.7,12.9-24c2.3,1.7,4.5,3.3,7.3,5.3
		C63.1,100.4,59.2,107.7,54.6,116.7z"/>
	<path class="st2" d="M289.9,368.8c-1.7,0.3-2.8,0.8-3.6,0.5c-1.9-0.6-3.7-1.5-6.3-2.6c0-5.3-0.1-10.6,0-15.9c0.1-4,0.3-4,7.2-8.2
		C292.2,351.2,292.3,359.9,289.9,368.8z"/>
	<path class="st2" d="M250,379.9c-4.2,3.2-6.9,5.2-9.8,7.4c-6-4.2-9.1-9.6-11.4-15.3c2.2-5.1,6.8-3.8,11.9-4.1
		C243.2,371.2,246.1,374.9,250,379.9z"/>
	<path class="st2" d="M40.7,125.5c8,4,8.7,4.8,7.5,9.3c-1.1,4.2-2.8,8.3-4,11.9c-4.9,3.1-6.9-0.9-10.4-2
		C34.6,137.4,36.4,131.1,40.7,125.5z"/>
	<path class="st2" d="M82.8,57.4c2,1.6,3.4,2.8,5.3,4.4c-2.6,7.1-7.7,12.2-13.2,18.1c-2.3-1.8-4.1-3.3-6.4-5.2
		C71.9,67.7,76.6,62.4,82.8,57.4z"/>
	<path class="st2" d="M276.4,331.1c-8.2,10.3-16.2,0.6-24.5,1.6c-0.6-3-1-5.2-1.6-8.2C260.7,322.4,268.8,324.7,276.4,331.1z"/>
	<path class="st2" d="M29.4,158.2c10.3,4.5,10.4,4.5,9.3,10.9c-0.5,2.8-1.7,5.4-2.5,7.9c-9.4,0.2-11.2-0.9-10.2-6.6
		C26.7,166.8,28,163.2,29.4,158.2z"/>
	<path class="st2" d="M95.4,45.7c2.9-4.4,6-7,11.5-7.3c0.1,1.5,0.8,3.3,0.2,3.9c-2.3,2.3-4.8,4.5-7.6,6.2
		C99,48.8,96.8,46.7,95.4,45.7z"/>
</g>
</svg>
